{"glyphs":{"A":{"ha":589,"x_min":0,"x_max":0,"o":"m 606 643 b 429 714 560 674 429 714 b 357 686 429 714 386 726 b -19 168 357 686 69 364 b -29 67 -19 168 -61 103 b 24 14 4 31 24 14 b 78 32 24 14 53 -11 b 163 168 103 75 121 103 l 369 197 b 357 94 369 197 356 139 b 386 40 357 94 357 65 b 447 0 415 17 447 0 b 492 31 447 0 481 -19 b 526 221 496 54 508 129 b 564 238 526 221 558 226 b 575 322 568 249 575 307 b 551 336 575 338 551 336 b 619 563 571 415 594 497 b 606 643 619 563 651 613 z m 394 347 b 276 336 338 346 276 336 b 449 571 325 440 449 571 b 394 347 421 486 394 347 z "},"B":{"ha":546,"x_min":0,"x_max":0,"o":"m 274 706 b 107 622 100 665 107 653 b 138 572 107 588 138 572 l -35 178 b 51 3 -35 178 -90 40 b 481 199 181 -32 468 68 b 403 321 493 322 415 324 b 594 506 421 326 593 361 b 274 706 599 658 446 744 z m 469 501 b 231 385 456 429 329 389 l 313 572 b 469 501 313 572 486 589 z m 360 238 b 135 160 281 156 135 160 l 181 268 b 360 238 242 281 428 310 z "},"C":{"ha":506,"x_min":0,"x_max":0,"o":"m 379 283 b 108 208 379 283 71 3 b 336 551 144 414 336 551 b 308 386 336 551 276 432 b 379 328 339 340 379 328 b 446 378 379 328 408 310 b 539 522 482 451 539 522 b 515 618 539 522 568 560 b 246 700 463 674 336 740 b -62 157 156 663 -122 422 b 318 60 6 -149 318 60 b 379 283 318 60 439 107 z "},"D":{"ha":590,"x_min":0,"x_max":0,"o":"m 439 700 b 169 669 439 700 260 742 b 163 572 79 599 163 572 b -39 175 163 572 -21 278 b 63 0 -56 72 3 21 b 593 331 121 -22 471 58 b 439 700 736 650 439 700 z m 465 408 b 136 164 364 178 136 164 l 326 521 b 451 531 326 521 396 551 b 465 408 508 511 465 408 z "},"E":{"ha":514,"x_min":0,"x_max":0,"o":"m 311 503 l 260 426 b 365 438 260 426 314 438 b 465 404 411 440 456 432 b 458 296 488 344 458 296 b 143 250 331 310 143 250 l 115 185 b 260 208 115 185 186 204 b 385 92 336 214 368 143 b 331 35 399 38 331 35 b 96 8 331 35 185 36 b -7 8 17 -17 -7 8 b -64 81 -7 8 -25 24 b -64 211 -110 147 -64 211 l 129 550 l 135 571 b 113 658 135 571 99 594 b 151 682 121 682 151 682 b 471 717 179 689 425 717 b 575 660 515 714 553 703 b 596 560 599 617 596 560 l 336 538 z "},"F":{"ha":490,"x_min":0,"x_max":0,"o":"m 322 538 l 247 382 l 381 383 b 421 356 381 383 415 386 l 425 283 b 383 251 425 283 428 258 b 172 231 347 243 272 246 l 60 0 b -18 224 60 0 -99 32 b 119 538 60 417 119 538 b 94 589 119 538 94 551 l 94 625 b 117 660 94 625 89 653 b 447 713 142 665 322 725 b 574 585 574 700 574 594 b 322 538 574 575 322 538 z "},"G":{"ha":460,"x_min":0,"x_max":0,"o":"m 281 714 b -76 350 281 714 -10 619 b 115 0 -144 78 44 0 b 410 226 189 0 326 26 b 457 278 410 226 454 231 l 463 328 b 422 357 463 328 460 357 b 189 342 386 357 274 357 b 129 292 189 342 129 333 b 132 233 129 247 132 233 b 160 200 132 233 135 200 b 281 210 186 200 281 210 b 174 147 281 210 276 156 b 94 274 68 139 94 274 b 339 567 94 274 118 496 b 328 465 339 567 310 514 b 413 401 344 418 413 401 b 463 439 413 401 442 386 b 533 546 483 489 533 546 b 533 611 533 546 569 586 b 281 714 496 638 394 764 z "},"H":{"ha":613,"x_min":0,"x_max":0,"o":"m 335 301 b 286 190 328 282 307 243 b 282 69 272 157 264 118 b 367 0 282 69 318 -10 b 647 601 367 0 621 465 b 638 682 647 601 669 663 b 581 711 606 701 581 711 b 519 679 581 711 547 724 b 388 422 493 633 413 468 b 269 422 388 422 326 435 b 363 603 269 422 343 557 b 349 679 363 603 385 653 b 260 721 311 706 260 721 b 214 682 260 721 240 733 b -29 218 214 682 19 346 b 29 0 -76 90 29 0 l 179 282 b 335 301 179 282 276 301 z "},"I":{"ha":299,"x_min":0,"x_max":0,"o":"m -11 57 b 47 0 -11 57 4 13 b 333 593 47 0 290 447 b 322 678 333 593 356 657 b 264 708 289 699 264 708 b 200 675 264 708 228 721 b 61 406 171 626 92 464 b -11 57 61 406 -58 188 z "},"J":{"ha":447,"x_min":0,"x_max":0,"o":"m 468 506 b 100 6 468 506 332 -12 b -26 196 -76 19 -47 196 b 65 149 -26 196 15 133 b 240 465 117 164 154 263 l 332 683 b 390 714 332 683 346 715 b 468 699 443 714 468 699 b 489 633 468 699 490 686 b 468 506 488 569 468 506 z "},"K":{"ha":658,"x_min":0,"x_max":0,"o":"m 219 635 b -25 214 219 635 26 332 b 7 14 -76 96 7 14 b 174 222 7 14 122 174 b 332 -17 174 222 214 -19 b 531 93 447 -11 531 93 b 438 101 531 93 464 63 b 346 247 413 140 346 247 b 725 592 346 247 697 528 b 733 661 725 592 756 625 b 686 713 713 694 686 713 b 617 713 686 713 656 743 b 268 399 579 683 425 561 b 379 597 268 399 376 571 b 343 656 381 619 363 650 b 258 671 322 664 258 671 b 219 635 258 671 243 676 z "},"L":{"ha":360,"x_min":0,"x_max":0,"o":"m 340 681 l 286 721 b 236 706 286 721 260 733 b -28 235 236 706 33 467 b 156 18 -87 7 63 -21 b 401 143 250 56 401 143 b 278 231 401 143 379 238 b 153 204 178 222 153 204 b 367 597 153 204 351 489 b 340 681 367 597 378 636 z "},"M":{"ha":892,"x_min":0,"x_max":0,"o":"m 671 697 b 460 425 592 629 460 425 b 493 539 468 464 493 539 b 465 617 510 593 465 617 b 308 667 465 617 372 657 b 219 606 265 672 219 606 b -43 76 219 606 -24 240 b 90 4 -62 -87 69 -26 b 343 486 114 36 343 486 b 281 156 343 486 285 344 b 358 47 281 156 275 38 l 683 472 l 561 171 b 647 19 561 171 511 49 l 925 564 b 890 667 925 564 960 631 b 781 724 824 704 781 724 b 671 697 781 724 731 749 z "},"N":{"ha":715,"x_min":0,"x_max":0,"o":"m 149 592 b -44 154 149 592 -7 299 b 42 -31 -82 10 42 -31 b 224 368 42 -31 110 92 b 260 107 224 368 186 169 b 356 46 332 49 356 46 b 436 75 356 46 400 21 b 756 644 474 129 674 468 b 732 694 756 644 765 675 b 656 731 697 713 656 731 b 593 718 656 731 624 751 b 390 311 564 683 418 385 b 399 497 390 311 381 363 b 328 647 419 632 328 647 l 264 657 b 149 592 264 657 188 668 z "},"O":{"ha":583,"x_min":0,"x_max":0,"o":"m -36 310 b 239 17 -101 18 163 -1 b 625 558 314 33 625 100 b 438 713 625 558 624 694 b 382 658 438 713 406 721 l 354 693 b 285 708 354 693 336 726 b -36 310 235 694 28 601 z m 265 140 b 156 179 240 126 176 93 b 201 386 133 263 201 386 b 258 331 208 347 249 332 b 272 349 268 331 272 349 b 414 533 299 444 414 533 b 265 140 417 260 306 163 z "},"P":{"ha":599,"x_min":0,"x_max":0,"o":"m 629 610 b 346 717 615 649 549 744 b 114 600 142 686 114 600 b 121 567 114 600 104 590 b 128 521 138 543 128 521 b -35 183 128 521 6 333 b 63 0 -74 33 63 0 b 183 258 63 0 114 143 b 493 289 183 258 319 161 b 586 382 533 318 564 349 b 632 474 608 413 622 446 b 629 610 647 535 639 588 z m 233 361 b 374 567 233 361 319 525 b 517 579 374 567 483 611 b 233 361 549 546 340 328 z "},"Q":{"ha":601,"x_min":0,"x_max":0,"o":"m 440 106 b 600 350 517 153 563 231 b 636 561 619 410 632 479 b 450 715 636 561 636 697 b 393 661 450 715 418 724 l 367 696 b 297 711 367 696 349 729 b -25 314 247 697 40 604 b 114 29 -65 132 24 56 b 206 15 146 18 178 14 b 253 24 224 15 247 21 b 344 -104 243 -53 293 -99 b 483 -51 421 -111 483 -51 b 422 -37 483 -51 436 -64 b 376 64 410 -12 381 53 l 375 67 b 440 106 369 64 444 107 z m 403 335 b 278 143 369 213 307 160 b 182 149 257 132 210 107 b 168 183 176 157 172 169 b 214 389 144 267 214 389 b 269 333 221 350 261 335 b 283 353 279 333 283 353 b 426 536 311 447 426 536 b 403 335 428 456 418 389 z "},"R":{"ha":635,"x_min":0,"x_max":0,"o":"m 413 244 b 644 606 413 244 763 426 b 188 679 526 785 188 679 b 128 622 188 679 128 663 b 164 560 128 583 164 560 l 10 283 b 7 -3 10 283 -86 128 l 175 268 b 432 24 175 268 264 -24 b 632 147 600 72 632 147 b 413 244 632 147 483 90 z m 240 353 l 344 525 b 422 560 344 525 364 563 l 490 560 b 476 488 490 560 542 551 b 240 353 410 422 243 354 z "},"S":{"ha":522,"x_min":0,"x_max":0,"o":"m -18 324 b 283 150 75 119 261 144 b 283 233 314 160 349 203 b 21 433 211 265 10 283 b 274 710 31 583 161 679 b 560 583 386 742 526 685 b 417 375 592 483 417 375 b 321 461 417 375 349 381 b 383 599 296 542 383 599 b 196 476 383 599 236 557 b 422 321 156 396 358 361 b 386 60 488 281 507 138 b -31 143 267 -18 28 -53 b -18 324 -31 143 -62 268 z "},"T":{"ha":501,"x_min":0,"x_max":0,"o":"m 197 506 l 28 214 b 72 -4 28 214 -60 63 l 438 551 l 585 563 b 504 711 585 563 594 696 b 75 650 414 726 101 721 b 100 504 50 581 51 504 b 197 506 150 504 197 506 z "},"U":{"ha":608,"x_min":0,"x_max":0,"o":"m 283 714 b 314 583 283 714 385 693 b 114 188 243 475 90 229 b 488 683 139 147 404 396 b 564 739 488 683 497 763 b 671 649 629 715 678 689 b 546 367 664 610 618 472 b 407 76 474 263 413 111 b 315 139 407 76 326 63 b 25 44 315 139 158 -89 b 165 682 -107 178 38 568 b 283 714 165 682 208 726 z "},"V":{"ha":540,"x_min":0,"x_max":0,"o":"m 172 715 l 125 735 b 50 681 125 735 75 757 b -42 135 24 606 -49 265 b 32 0 -36 7 32 0 b 581 722 32 0 510 410 b 569 776 581 722 589 758 b 521 814 542 801 521 814 b 438 779 521 814 496 846 b 146 351 350 679 146 351 b 224 660 146 351 215 611 b 172 715 226 696 172 715 z "},"W":{"ha":835,"x_min":0,"x_max":0,"o":"m 749 744 b 807 754 788 771 807 754 b 858 708 807 754 831 735 b 874 651 885 681 874 651 b 336 -25 789 442 336 -25 b 278 94 297 4 276 47 b 303 332 281 215 303 332 b 44 -40 197 228 44 -40 b -40 217 3 3 -51 65 b 68 619 -29 368 68 619 b 118 635 68 619 81 644 b 200 603 154 625 199 610 b 197 518 203 596 225 608 b 151 338 171 428 163 410 b 349 617 151 338 293 583 b 392 621 349 617 363 632 b 494 574 421 610 494 574 b 517 528 494 574 526 557 b 476 390 508 500 493 463 b 749 744 476 390 639 669 z "},"X":{"ha":854,"x_min":0,"x_max":0,"o":"m 772 676 b 439 288 746 636 600 468 l 482 96 b 538 6 482 96 492 35 b 328 69 538 6 382 -43 b 306 140 328 69 318 96 b -3 -203 139 -43 -3 -203 b -40 -106 -3 -203 -31 -157 b -12 0 -49 -50 -12 0 b 258 332 31 68 139 201 b 201 667 233 431 213 547 b 244 696 201 667 196 696 b 313 700 296 697 313 700 b 361 639 313 700 346 707 l 394 488 b 646 756 529 635 646 756 b 731 789 692 806 731 789 b 775 747 731 789 750 776 b 772 676 806 718 772 676 z "},"Y":{"ha":567,"x_min":0,"x_max":0,"o":"m 78 597 b 25 208 78 597 -4 379 b 76 128 25 208 31 147 b -65 -104 76 128 -19 -10 b -57 -286 -110 -196 -57 -286 b 22 -246 -57 -286 -35 -336 b 640 625 82 -156 640 625 b 617 729 640 625 675 699 l 557 763 b 472 713 557 763 519 779 b 197 285 425 646 197 285 b 235 519 197 285 199 415 b 201 611 235 519 263 594 b 78 597 140 628 78 597 z "},"Z":{"ha":656,"x_min":0,"x_max":0,"o":"m 243 710 l 521 725 b 606 696 521 725 572 729 b 689 585 638 661 689 585 b 665 494 689 585 719 536 b 225 207 613 454 225 207 l 419 207 b 500 186 419 207 472 215 b 547 131 529 158 547 131 b 517 76 547 131 568 90 b 126 0 465 61 126 0 b 0 60 126 0 36 -7 l -36 126 b -4 214 -36 126 -60 182 b 474 564 51 246 474 564 l 289 543 b 203 567 289 543 238 536 b 157 660 169 597 157 660 b 194 704 157 660 146 699 z "},"a":{"ha":589,"x_min":0,"x_max":0,"o":"m 606 643 b 429 714 560 674 429 714 b 357 686 429 714 386 726 b -19 168 357 686 69 364 b -29 67 -19 168 -61 103 b 24 14 4 31 24 14 b 78 32 24 14 53 -11 b 163 168 103 75 121 103 l 369 197 b 357 94 369 197 356 139 b 386 40 357 94 357 65 b 447 0 415 17 447 0 b 492 31 447 0 481 -19 b 526 221 496 54 508 129 b 564 238 526 221 558 226 b 575 322 568 249 575 307 b 551 336 575 338 551 336 b 619 563 571 415 594 497 b 606 643 619 563 651 613 z m 394 347 b 276 336 338 346 276 336 b 449 571 325 440 449 571 b 394 347 421 486 394 347 z "},"b":{"ha":546,"x_min":0,"x_max":0,"o":"m 274 706 b 107 622 100 665 107 653 b 138 572 107 588 138 572 l -35 178 b 51 3 -35 178 -90 40 b 481 199 181 -32 468 68 b 403 321 493 322 415 324 b 594 506 421 326 593 361 b 274 706 599 658 446 744 z m 469 501 b 231 385 456 429 329 389 l 313 572 b 469 501 313 572 486 589 z m 360 238 b 135 160 281 156 135 160 l 181 268 b 360 238 242 281 428 310 z "},"c":{"ha":506,"x_min":0,"x_max":0,"o":"m 379 283 b 108 208 379 283 71 3 b 336 551 144 414 336 551 b 308 386 336 551 276 432 b 379 328 339 340 379 328 b 446 378 379 328 408 310 b 539 522 482 451 539 522 b 515 618 539 522 568 560 b 246 700 463 674 336 740 b -62 157 156 663 -122 422 b 318 60 6 -149 318 60 b 379 283 318 60 439 107 z "},"d":{"ha":590,"x_min":0,"x_max":0,"o":"m 439 700 b 169 669 439 700 260 742 b 163 572 79 599 163 572 b -39 175 163 572 -21 278 b 63 0 -56 72 3 21 b 593 331 121 -22 471 58 b 439 700 736 650 439 700 z m 465 408 b 136 164 364 178 136 164 l 326 521 b 451 531 326 521 396 551 b 465 408 508 511 465 408 z "},"e":{"ha":514,"x_min":0,"x_max":0,"o":"m 311 503 l 260 426 b 365 438 260 426 314 438 b 465 404 411 440 456 432 b 458 296 488 344 458 296 b 143 250 331 310 143 250 l 115 185 b 260 208 115 185 186 204 b 385 92 336 214 368 143 b 331 35 399 38 331 35 b 96 8 331 35 185 36 b -7 8 17 -17 -7 8 b -64 81 -7 8 -25 24 b -64 211 -110 147 -64 211 l 129 550 l 135 571 b 113 658 135 571 99 594 b 151 682 121 682 151 682 b 471 717 179 689 425 717 b 575 660 515 714 553 703 b 596 560 599 617 596 560 l 336 538 z "},"f":{"ha":490,"x_min":0,"x_max":0,"o":"m 322 538 l 247 382 l 381 383 b 421 356 381 383 415 386 l 425 283 b 383 251 425 283 428 258 b 172 231 347 243 272 246 l 60 0 b -18 224 60 0 -99 32 b 119 538 60 417 119 538 b 94 589 119 538 94 551 l 94 625 b 117 660 94 625 89 653 b 447 713 142 665 322 725 b 574 585 574 700 574 594 b 322 538 574 575 322 538 z "},"g":{"ha":460,"x_min":0,"x_max":0,"o":"m 281 714 b -76 350 281 714 -10 619 b 115 0 -144 78 44 0 b 410 226 189 0 326 26 b 457 278 410 226 454 231 l 463 328 b 422 357 463 328 460 357 b 189 342 386 357 274 357 b 129 292 189 342 129 333 b 132 233 129 247 132 233 b 160 200 132 233 135 200 b 281 210 186 200 281 210 b 174 147 281 210 276 156 b 94 274 68 139 94 274 b 339 567 94 274 118 496 b 328 465 339 567 310 514 b 413 401 344 418 413 401 b 463 439 413 401 442 386 b 533 546 483 489 533 546 b 533 611 533 546 569 586 b 281 714 496 638 394 764 z "},"h":{"ha":613,"x_min":0,"x_max":0,"o":"m 321 301 b 292 89 321 301 250 201 b 349 35 292 89 307 47 b 647 601 349 35 621 465 b 638 682 647 601 669 663 b 581 711 606 701 581 711 b 519 679 581 711 547 724 b 388 422 493 633 413 468 b 269 422 388 422 326 435 b 363 603 269 422 343 557 b 349 679 363 603 385 653 b 260 721 311 706 260 721 b 214 682 260 721 240 733 b -29 218 214 682 19 346 b 29 0 -76 90 29 0 l 179 282 b 321 301 179 282 263 301 z "},"i":{"ha":299,"x_min":0,"x_max":0,"o":"m -11 57 b 47 0 -11 57 4 13 b 333 593 47 0 290 447 b 322 678 333 593 356 657 b 264 708 289 699 264 708 b 200 675 264 708 228 721 b 61 406 171 626 92 464 b -11 57 61 406 -58 188 z "},"j":{"ha":438,"x_min":0,"x_max":0,"o":"m 457 506 b 89 6 457 506 321 -12 b -37 196 -87 19 -58 196 b 54 149 -37 196 4 133 b 229 465 106 164 143 263 l 321 683 b 379 714 321 683 335 715 b 457 699 432 714 457 699 b 478 633 457 699 479 686 b 457 506 476 569 457 506 z "},"k":{"ha":658,"x_min":0,"x_max":0,"o":"m 219 635 b -25 214 219 635 26 332 b 7 14 -76 96 7 14 b 174 222 7 14 122 174 b 332 -17 174 222 214 -19 b 531 93 447 -11 531 93 b 438 101 531 93 464 63 b 346 247 413 140 346 247 b 725 592 346 247 697 528 b 733 661 725 592 756 625 b 686 713 713 694 686 713 b 617 713 686 713 656 743 b 268 399 579 683 425 561 b 379 597 268 399 376 571 b 343 656 381 619 363 650 b 258 671 322 664 258 671 b 219 635 258 671 243 676 z "},"l":{"ha":360,"x_min":0,"x_max":0,"o":"m 340 681 l 286 721 b 236 706 286 721 260 733 b -28 235 236 706 33 467 b 156 18 -87 7 63 -21 b 401 143 250 56 401 143 b 278 231 401 143 379 238 b 153 204 178 222 153 204 b 367 597 153 204 351 489 b 340 681 367 597 378 636 z "},"m":{"ha":892,"x_min":0,"x_max":0,"o":"m 671 697 b 460 425 592 629 460 425 b 493 539 468 464 493 539 b 465 617 510 593 465 617 b 308 667 465 617 372 657 b 219 606 265 672 219 606 b -43 76 219 606 -24 240 b 90 4 -62 -87 69 -26 b 343 486 114 36 343 486 b 281 156 343 486 285 344 b 358 47 281 156 275 38 l 683 472 l 561 171 b 647 19 561 171 511 49 l 925 564 b 890 667 925 564 960 631 b 781 724 824 704 781 724 b 671 697 781 724 731 749 z "},"n":{"ha":715,"x_min":0,"x_max":0,"o":"m 149 592 b -44 154 149 592 -7 299 b 42 -31 -82 10 42 -31 b 224 368 42 -31 110 92 b 260 107 224 368 186 169 b 356 46 332 49 356 46 b 436 75 356 46 400 21 b 756 644 474 129 674 468 b 732 694 756 644 765 675 b 656 731 697 713 656 731 b 593 718 656 731 624 751 b 390 311 564 683 418 385 b 399 497 390 311 381 363 b 328 647 419 632 328 647 l 264 657 b 149 592 264 657 188 668 z "},"o":{"ha":583,"x_min":0,"x_max":0,"o":"m -36 310 b 239 17 -101 18 163 -1 b 625 558 314 33 625 100 b 438 713 625 558 624 694 b 382 658 438 713 406 721 l 354 693 b 285 708 354 693 336 726 b -36 310 235 694 28 601 z m 265 140 b 156 179 240 126 176 93 b 201 386 133 263 201 386 b 258 331 208 347 249 332 b 272 349 268 331 272 349 b 414 533 299 444 414 533 b 265 140 417 260 306 163 z "},"p":{"ha":599,"x_min":0,"x_max":0,"o":"m 629 610 b 346 717 615 649 549 744 b 114 600 142 686 114 600 b 121 567 114 600 104 590 b 128 521 138 543 128 521 b -35 183 128 521 6 333 b 63 0 -74 33 63 0 b 183 258 63 0 114 143 b 493 289 183 258 319 161 b 586 382 533 318 564 349 b 632 474 608 413 622 446 b 629 610 647 535 639 588 z m 233 361 b 374 567 233 361 319 525 b 517 579 374 567 483 611 b 233 361 549 546 340 328 z "},"q":{"ha":594,"x_min":0,"x_max":0,"o":"m 440 106 b 600 350 517 153 563 231 b 636 561 619 410 632 479 b 450 715 636 561 636 697 b 393 661 450 715 418 724 l 367 696 b 297 711 367 696 349 729 b -25 314 247 697 40 604 b 114 29 -65 132 24 56 b 206 15 146 18 178 14 b 253 24 224 15 247 21 b 344 -104 243 -53 293 -99 b 483 -51 421 -111 483 -51 b 422 -37 483 -51 436 -64 b 376 64 410 -12 381 53 l 375 67 b 440 106 369 64 444 107 z m 403 335 b 278 143 369 213 307 160 b 182 149 257 132 210 107 b 168 183 176 157 172 169 b 214 389 144 267 214 389 b 269 333 221 350 261 335 b 283 353 279 333 283 353 b 426 536 311 447 426 536 b 403 335 428 456 418 389 z "},"r":{"ha":635,"x_min":0,"x_max":0,"o":"m 413 244 b 644 606 413 244 763 426 b 188 679 526 785 188 679 b 128 622 188 679 128 663 b 164 560 128 583 164 560 l 10 283 b 7 -3 10 283 -86 128 l 175 268 b 432 24 175 268 264 -24 b 632 147 600 72 632 147 b 413 244 632 147 483 90 z m 240 353 l 344 525 b 422 560 344 525 364 563 l 490 560 b 476 488 490 560 542 551 b 240 353 410 422 243 354 z "},"s":{"ha":522,"x_min":0,"x_max":0,"o":"m -18 324 b 283 150 75 119 261 144 b 283 233 314 160 349 203 b 21 433 211 265 10 283 b 274 710 31 583 161 679 b 560 583 386 742 526 685 b 417 375 592 483 417 375 b 321 461 417 375 349 381 b 383 599 296 542 383 599 b 196 476 383 599 236 557 b 422 321 156 396 358 361 b 386 60 488 281 507 138 b -31 143 267 -18 28 -53 b -18 324 -31 143 -62 268 z "},"t":{"ha":501,"x_min":0,"x_max":0,"o":"m 197 506 l 28 214 b 72 -4 28 214 -60 63 l 438 551 l 585 563 b 504 711 585 563 594 696 b 75 650 414 726 101 721 b 100 504 50 581 51 504 b 197 506 150 504 197 506 z "},"u":{"ha":608,"x_min":0,"x_max":0,"o":"m 283 714 b 314 583 283 714 385 693 b 114 188 243 475 90 229 b 488 683 139 147 404 396 b 564 739 488 683 497 763 b 671 649 629 715 678 689 b 546 367 664 610 618 472 b 407 76 474 263 413 111 b 315 139 407 76 326 63 b 25 44 315 139 158 -89 b 165 682 -107 178 38 568 b 283 714 165 682 208 726 z "},"v":{"ha":540,"x_min":0,"x_max":0,"o":"m 172 715 l 125 735 b 50 681 125 735 75 757 b -42 135 24 606 -49 265 b 32 0 -36 7 32 0 b 581 722 32 0 510 410 b 569 776 581 722 589 758 b 521 814 542 801 521 814 b 438 779 521 814 496 846 b 146 351 350 679 146 351 b 224 660 146 351 215 611 b 172 715 226 696 172 715 z "},"w":{"ha":835,"x_min":0,"x_max":0,"o":"m 749 744 b 807 754 788 771 807 754 b 858 708 807 754 831 735 b 874 651 885 681 874 651 b 336 -25 789 442 336 -25 b 278 94 297 4 276 47 b 303 332 281 215 303 332 b 44 -40 197 228 44 -40 b -40 217 3 3 -51 65 b 68 619 -29 368 68 619 b 118 635 68 619 81 644 b 200 603 154 625 199 610 b 197 518 203 596 225 608 b 151 338 171 428 163 410 b 349 617 151 338 293 583 b 392 621 349 617 363 632 b 494 574 421 610 494 574 b 517 528 494 574 526 557 b 476 390 508 500 493 463 b 749 744 476 390 639 669 z "},"x":{"ha":854,"x_min":0,"x_max":0,"o":"m 772 676 b 439 288 746 636 600 468 l 482 96 b 538 6 482 96 492 35 b 328 69 538 6 382 -43 b 306 140 328 69 318 96 b -3 -203 139 -43 -3 -203 b -40 -106 -3 -203 -31 -157 b -12 0 -49 -50 -12 0 b 258 332 31 68 139 201 b 201 667 233 431 213 547 b 244 696 201 667 196 696 b 313 700 296 697 313 700 b 361 639 313 700 346 707 l 394 488 b 646 756 529 635 646 756 b 731 789 692 806 731 789 b 775 747 731 789 750 776 b 772 676 806 718 772 676 z "},"y":{"ha":567,"x_min":0,"x_max":0,"o":"m 78 597 b 25 208 78 597 -4 379 b 76 128 25 208 31 147 b -65 -104 76 128 -19 -10 b -57 -286 -110 -196 -57 -286 b 22 -246 -57 -286 -35 -336 b 640 625 82 -156 640 625 b 617 729 640 625 675 699 l 557 763 b 472 713 557 763 519 779 b 197 285 425 646 197 285 b 235 519 197 285 199 415 b 201 611 235 519 263 594 b 78 597 140 628 78 597 z "},"z":{"ha":656,"x_min":0,"x_max":0,"o":"m 243 710 l 521 725 b 606 696 521 725 572 729 b 689 585 638 661 689 585 b 665 494 689 585 719 536 b 225 207 613 454 225 207 l 419 207 b 500 186 419 207 472 215 b 547 131 529 158 547 131 b 517 76 547 131 568 90 b 126 0 465 61 126 0 b 0 60 126 0 36 -7 l -36 126 b -4 214 -36 126 -60 182 b 474 564 51 246 474 564 l 289 543 b 203 567 289 543 238 536 b 157 660 169 597 157 660 b 194 704 157 660 146 699 z "}," ":{"ha":278,"x_min":0,"x_max":0,"o":""}}}
